<svg xmlns="http://www.w3.org/2000/svg" width="128" height="128" viewBox="0 0 128 128">

<defs>
  <linearGradient id="bar_library_g1" x1="0" y1="0" x2="0" y2="1">
    <stop offset="0" stop-color="#ffffff" stop-opacity="0.9"/>
    <stop offset="0.45" stop-color="#ffffff" stop-opacity="0.05"/>
    <stop offset="1" stop-color="#000000" stop-opacity="0.12"/>
  </linearGradient>
  <filter id="bar_library_ds" x="-30%" y="-30%" width="160%" height="160%">
    <feDropShadow dx="0" dy="6" stdDeviation="6" flood-color="#000" flood-opacity="0.25"/>
  </filter>
  <filter id="bar_library_glow" x="-30%" y="-30%" width="160%" height="160%">
    <feGaussianBlur stdDeviation="2" result="b"/>
    <feMerge>
      <feMergeNode in="b"/>
      <feMergeNode in="SourceGraphic"/>
    </feMerge>
  </filter>
</defs>

<defs>
  <linearGradient id="bar_library_bg" x1="0" y1="0" x2="1" y2="1">
    <stop offset="0" stop-color="#f59e0b"/>
    <stop offset="1" stop-color="#22c55e"/>
  </linearGradient>
</defs>
<rect x="10" y="10" width="108" height="108" rx="26" fill="url(#bar_library_bg)" filter="url(#bar_library_ds)"/>
<path d="M18 36 C34 20, 60 18, 92 18 C104 18, 112 22, 116 26 L116 34 C110 28, 102 24, 92 24 C60 24, 40 26, 24 40 Z" fill="white" opacity="0.22"/>
<rect x="14" y="14" width="100" height="100" rx="24" fill="url(#bar_library_g1)" opacity="0.45"/>

<g filter="url(#bar_library_glow)">
  <rect x="32" y="46" width="40" height="52" rx="10" fill="#fff7ed"/>
  <rect x="36" y="50" width="32" height="44" rx="8" fill="#fde68a" opacity="0.9"/>
  <path d="M40 60 L64 60" stroke="#92400e" stroke-width="4" stroke-linecap="round" opacity="0.75"/>
  <path d="M40 70 L62 70" stroke="#92400e" stroke-width="4" stroke-linecap="round" opacity="0.65"/>
  <path d="M40 80 L58 80" stroke="#92400e" stroke-width="4" stroke-linecap="round" opacity="0.55"/>
  <path d="M84 40 C92 46, 92 58, 86 64 L86 96 C86 104, 70 104, 70 96 L70 64 C64 58, 64 46, 72 40 Z" fill="#22c55e"/>
  <path d="M76 40 L80 40" stroke="#fbbf24" stroke-width="8" stroke-linecap="round"/>
  <path d="M72 64 L84 64" stroke="#bbf7d0" stroke-width="6" opacity="0.7" stroke-linecap="round"/>
  <circle cx="78" cy="56" r="5" fill="#fef3c7" opacity="0.9"/>
</g>

</svg>