<svg xmlns="http://www.w3.org/2000/svg" width="128" height="128" viewBox="0 0 128 128">

<defs>
  <linearGradient id="cold_g1" x1="0" y1="0" x2="0" y2="1">
    <stop offset="0" stop-color="#ffffff" stop-opacity="0.9"/>
    <stop offset="0.45" stop-color="#ffffff" stop-opacity="0.05"/>
    <stop offset="1" stop-color="#000000" stop-opacity="0.12"/>
  </linearGradient>
  <filter id="cold_ds" x="-30%" y="-30%" width="160%" height="160%">
    <feDropShadow dx="0" dy="6" stdDeviation="6" flood-color="#000" flood-opacity="0.25"/>
  </filter>
  <filter id="cold_glow" x="-30%" y="-30%" width="160%" height="160%">
    <feGaussianBlur stdDeviation="2" result="b"/>
    <feMerge>
      <feMergeNode in="b"/>
      <feMergeNode in="SourceGraphic"/>
    </feMerge>
  </filter>
</defs>

<defs>
  <linearGradient id="cold_bg" x1="0" y1="0" x2="1" y2="1">
    <stop offset="0" stop-color="#22c55e"/>
    <stop offset="1" stop-color="#0ea5e9"/>
  </linearGradient>
</defs>
<rect x="10" y="10" width="108" height="108" rx="26" fill="url(#cold_bg)" filter="url(#cold_ds)"/>
<path d="M18 36 C34 20, 60 18, 92 18 C104 18, 112 22, 116 26 L116 34 C110 28, 102 24, 92 24 C60 24, 40 26, 24 40 Z" fill="white" opacity="0.22"/>
<rect x="14" y="14" width="100" height="100" rx="24" fill="url(#cold_g1)" opacity="0.45"/>

<g filter="url(#cold_glow)">
  <path d="M30 70 C34 94, 94 94, 98 70 Z" fill="#e5e7eb"/>
  <path d="M34 70 C38 88, 90 88, 94 70 Z" fill="#cbd5e1"/>
  <path d="M36 66 C44 52, 60 46, 76 50 C88 54, 94 60, 94 66 C94 74, 82 78, 64 78 C46 78, 36 74, 36 66 Z" fill="#22c55e"/>
  <path d="M44 62 C50 56, 60 54, 70 56" stroke="#86efac" stroke-width="5" stroke-linecap="round" opacity="0.8"/>
  <circle cx="60" cy="60" r="6" fill="#f472b6" opacity="0.9"/>
  <circle cx="74" cy="62" r="5" fill="#fb7185" opacity="0.9"/>
  <path d="M82 42 L98 50 L90 66 L74 58 Z" fill="#93c5fd" opacity="0.9"/>
  <path d="M82 42 L90 46 L82 62 L74 58 Z" fill="#bfdbfe" opacity="0.9"/>
  <path d="M82 42 L98 50" stroke="#ffffff" stroke-width="3" opacity="0.7"/>
</g>

</svg>