<svg xmlns="http://www.w3.org/2000/svg" width="128" height="128" viewBox="0 0 128 128">

<defs>
  <linearGradient id="hot_g1" x1="0" y1="0" x2="0" y2="1">
    <stop offset="0" stop-color="#ffffff" stop-opacity="0.9"/>
    <stop offset="0.45" stop-color="#ffffff" stop-opacity="0.05"/>
    <stop offset="1" stop-color="#000000" stop-opacity="0.12"/>
  </linearGradient>
  <filter id="hot_ds" x="-30%" y="-30%" width="160%" height="160%">
    <feDropShadow dx="0" dy="6" stdDeviation="6" flood-color="#000" flood-opacity="0.25"/>
  </filter>
  <filter id="hot_glow" x="-30%" y="-30%" width="160%" height="160%">
    <feGaussianBlur stdDeviation="2" result="b"/>
    <feMerge>
      <feMergeNode in="b"/>
      <feMergeNode in="SourceGraphic"/>
    </feMerge>
  </filter>
</defs>

<defs>
  <linearGradient id="hot_bg" x1="0" y1="0" x2="1" y2="1">
    <stop offset="0" stop-color="#ef4444"/>
    <stop offset="1" stop-color="#f97316"/>
  </linearGradient>
</defs>
<rect x="10" y="10" width="108" height="108" rx="26" fill="url(#hot_bg)" filter="url(#hot_ds)"/>
<path d="M18 36 C34 20, 60 18, 92 18 C104 18, 112 22, 116 26 L116 34 C110 28, 102 24, 92 24 C60 24, 40 26, 24 40 Z" fill="white" opacity="0.22"/>
<rect x="14" y="14" width="100" height="100" rx="24" fill="url(#hot_g1)" opacity="0.45"/>

<g filter="url(#hot_glow)">
  <path d="M78 44 C94 52, 96 72, 84 84 C72 96, 50 94, 42 78 C34 62, 42 44, 60 40 C66 38, 72 40, 78 44 Z" fill="#f59e0b"/>
  <path d="M70 46 C82 52, 84 68, 76 76 C68 84, 54 82, 48 72 C42 62, 48 48, 60 46 C64 45, 67 45, 70 46 Z" fill="#fbbf24" opacity="0.9"/>
  <path d="M40 76 L30 86" stroke="#92400e" stroke-width="10" stroke-linecap="round"/>
  <path d="M30 86 C24 92, 20 94, 18 92 C16 90, 18 86, 24 80" stroke="#f3f4f6" stroke-width="10" stroke-linecap="round"/>
  <circle cx="22" cy="86" r="6" fill="#f3f4f6"/>
  <circle cx="32" cy="96" r="6" fill="#f3f4f6"/>
  <path d="M58 52 C62 50, 70 52, 74 58" stroke="#ffffff" stroke-width="5" stroke-linecap="round" opacity="0.45"/>
</g>

</svg>