<svg xmlns="http://www.w3.org/2000/svg" width="128" height="128" viewBox="0 0 128 128">

<defs>
  <linearGradient id="maintenance_g1" x1="0" y1="0" x2="0" y2="1">
    <stop offset="0" stop-color="#ffffff" stop-opacity="0.9"/>
    <stop offset="0.45" stop-color="#ffffff" stop-opacity="0.05"/>
    <stop offset="1" stop-color="#000000" stop-opacity="0.12"/>
  </linearGradient>
  <filter id="maintenance_ds" x="-30%" y="-30%" width="160%" height="160%">
    <feDropShadow dx="0" dy="6" stdDeviation="6" flood-color="#000" flood-opacity="0.25"/>
  </filter>
  <filter id="maintenance_glow" x="-30%" y="-30%" width="160%" height="160%">
    <feGaussianBlur stdDeviation="2" result="b"/>
    <feMerge>
      <feMergeNode in="b"/>
      <feMergeNode in="SourceGraphic"/>
    </feMerge>
  </filter>
</defs>

<defs>
  <linearGradient id="maintenance_bg" x1="0" y1="0" x2="1" y2="1">
    <stop offset="0" stop-color="#64748b"/>
    <stop offset="1" stop-color="#fbbf24"/>
  </linearGradient>
</defs>
<rect x="10" y="10" width="108" height="108" rx="26" fill="url(#maintenance_bg)" filter="url(#maintenance_ds)"/>
<path d="M18 36 C34 20, 60 18, 92 18 C104 18, 112 22, 116 26 L116 34 C110 28, 102 24, 92 24 C60 24, 40 26, 24 40 Z" fill="white" opacity="0.22"/>
<rect x="14" y="14" width="100" height="100" rx="24" fill="url(#maintenance_g1)" opacity="0.45"/>

<g filter="url(#maintenance_glow)">
  <path d="M40 86 L78 48" stroke="#60a5fa" stroke-width="14" stroke-linecap="round"/>
  <path d="M74 44 L88 30" stroke="#93c5fd" stroke-width="14" stroke-linecap="round"/>
  <path d="M84 30 C92 24, 104 26, 108 34 C112 42, 108 54, 98 58" stroke="#9ca3af" stroke-width="12" fill="none" stroke-linecap="round"/>
  <path d="M40 86 L30 96" stroke="#fbbf24" stroke-width="14" stroke-linecap="round"/>
  <path d="M26 98 L18 106" stroke="#92400e" stroke-width="14" stroke-linecap="round"/>
  <path d="M44 82 L34 92" stroke="#ffffff" stroke-width="4" opacity="0.5" stroke-linecap="round"/>
</g>

</svg>