<svg xmlns="http://www.w3.org/2000/svg" width="128" height="128" viewBox="0 0 128 128">

<defs>
  <linearGradient id="pastry_g1" x1="0" y1="0" x2="0" y2="1">
    <stop offset="0" stop-color="#ffffff" stop-opacity="0.9"/>
    <stop offset="0.45" stop-color="#ffffff" stop-opacity="0.05"/>
    <stop offset="1" stop-color="#000000" stop-opacity="0.12"/>
  </linearGradient>
  <filter id="pastry_ds" x="-30%" y="-30%" width="160%" height="160%">
    <feDropShadow dx="0" dy="6" stdDeviation="6" flood-color="#000" flood-opacity="0.25"/>
  </filter>
  <filter id="pastry_glow" x="-30%" y="-30%" width="160%" height="160%">
    <feGaussianBlur stdDeviation="2" result="b"/>
    <feMerge>
      <feMergeNode in="b"/>
      <feMergeNode in="SourceGraphic"/>
    </feMerge>
  </filter>
</defs>

<defs>
  <linearGradient id="pastry_bg" x1="0" y1="0" x2="1" y2="1">
    <stop offset="0" stop-color="#f472b6"/>
    <stop offset="1" stop-color="#f59e0b"/>
  </linearGradient>
</defs>
<rect x="10" y="10" width="108" height="108" rx="26" fill="url(#pastry_bg)" filter="url(#pastry_ds)"/>
<path d="M18 36 C34 20, 60 18, 92 18 C104 18, 112 22, 116 26 L116 34 C110 28, 102 24, 92 24 C60 24, 40 26, 24 40 Z" fill="white" opacity="0.22"/>
<rect x="14" y="14" width="100" height="100" rx="24" fill="url(#pastry_g1)" opacity="0.45"/>

<g filter="url(#pastry_glow)">
  <path d="M34 82 L86 70 L94 86 L42 98 Z" fill="#fde68a"/>
  <path d="M34 52 L86 40 L86 70 L34 82 Z" fill="#fff7ed"/>
  <path d="M86 40 L94 56 L94 86 L86 70 Z" fill="#fee2e2"/>
  <path d="M40 56 L82 46" stroke="#fda4af" stroke-width="6" stroke-linecap="round" opacity="0.85"/>
  <circle cx="70" cy="50" r="6" fill="#fb7185"/>
  <path d="M38 82 L90 70" stroke="#d97706" stroke-width="4" opacity="0.6"/>
  <path d="M44 60 C52 58, 64 58, 74 60" stroke="#ffffff" stroke-width="5" stroke-linecap="round" opacity="0.4"/>
</g>

</svg>