<svg xmlns="http://www.w3.org/2000/svg" width="128" height="128" viewBox="0 0 128 128">

<defs>
  <linearGradient id="tray_setup_g1" x1="0" y1="0" x2="0" y2="1">
    <stop offset="0" stop-color="#ffffff" stop-opacity="0.9"/>
    <stop offset="0.45" stop-color="#ffffff" stop-opacity="0.05"/>
    <stop offset="1" stop-color="#000000" stop-opacity="0.12"/>
  </linearGradient>
  <filter id="tray_setup_ds" x="-30%" y="-30%" width="160%" height="160%">
    <feDropShadow dx="0" dy="6" stdDeviation="6" flood-color="#000" flood-opacity="0.25"/>
  </filter>
  <filter id="tray_setup_glow" x="-30%" y="-30%" width="160%" height="160%">
    <feGaussianBlur stdDeviation="2" result="b"/>
    <feMerge>
      <feMergeNode in="b"/>
      <feMergeNode in="SourceGraphic"/>
    </feMerge>
  </filter>
</defs>

<defs>
  <linearGradient id="tray_setup_bg" x1="0" y1="0" x2="1" y2="1">
    <stop offset="0" stop-color="#a78bfa"/>
    <stop offset="1" stop-color="#60a5fa"/>
  </linearGradient>
</defs>
<rect x="10" y="10" width="108" height="108" rx="26" fill="url(#tray_setup_bg)" filter="url(#tray_setup_ds)"/>
<path d="M18 36 C34 20, 60 18, 92 18 C104 18, 112 22, 116 26 L116 34 C110 28, 102 24, 92 24 C60 24, 40 26, 24 40 Z" fill="white" opacity="0.22"/>
<rect x="14" y="14" width="100" height="100" rx="24" fill="url(#tray_setup_g1)" opacity="0.45"/>

<g filter="url(#tray_setup_glow)">
  <rect x="30" y="56" width="68" height="42" rx="10" fill="#e5e7eb"/>
  <rect x="34" y="60" width="60" height="34" rx="8" fill="#cbd5e1"/>
  <rect x="40" y="66" width="22" height="22" rx="6" fill="#fff" opacity="0.9"/>
  <rect x="66" y="66" width="22" height="22" rx="6" fill="#fff" opacity="0.9"/>
  <path d="M24 44 L24 88" stroke="#9ca3af" stroke-width="6" stroke-linecap="round"/>
  <path d="M104 44 L104 88" stroke="#9ca3af" stroke-width="6" stroke-linecap="round"/>
  <path d="M104 44 C112 46, 112 54, 104 56" stroke="#9ca3af" stroke-width="6" stroke-linecap="round" fill="none"/>
  <path d="M18 44 L30 44" stroke="#9ca3af" stroke-width="6" stroke-linecap="round"/>
  <path d="M18 54 L30 54" stroke="#9ca3af" stroke-width="6" stroke-linecap="round"/>
  <path d="M18 64 L30 64" stroke="#9ca3af" stroke-width="6" stroke-linecap="round"/>
  <path d="M24 44 L24 64" stroke="#9ca3af" stroke-width="6" stroke-linecap="round"/>
</g>

</svg>